<?xml version="1.0" encoding="UTF-8"?>
<svg width="17px" height="18px" viewBox="0 0 17 18" version="1.1" xmlns="http://www.w3.org/2000/svg" xmlns:xlink="http://www.w3.org/1999/xlink">
    <!-- Generator: Sketch 47.1 (45422) - http://www.bohemiancoding.com/sketch -->
    <title>Combined Shape</title>
    <desc>Created with Sketch.</desc>
    <defs></defs>
    <g id="spinner" fill="#CCCCCC" transform="rotate(360, 9, 9)" repeatCount="indefinite">
        <path d="M9,6 C7.34314575,6 6,4.65685425 6,3 C6,1.34314575 7.34314575,0 9,0 C10.6568542,0 12,1.34314575 12,3 C12,4.65685425 10.6568542,6 9,6 Z M14.5,9 C13.1192881,9 12,7.88071187 12,6.5 C12,5.11928813 13.1192881,4 14.5,4 C15.8807119,4 17,5.11928813 17,6.5 C17,7.88071187 15.8807119,9 14.5,9 Z M14.5,15 C13.1192881,15 12,13.8807119 12,12.5 C12,11.1192881 13.1192881,10 14.5,10 C15.8807119,10 17,11.1192881 17,12.5 C17,13.8807119 15.8807119,15 14.5,15 Z M10.5,18 C9.67157288,18 9,17.3284271 9,16.5 C9,15.6715729 9.67157288,15 10.5,15 C11.3284271,15 12,15.6715729 12,16.5 C12,17.3284271 11.3284271,18 10.5,18 Z M5.5,18 C4.67157288,18 4,17.3284271 4,16.5 C4,15.6715729 4.67157288,15 5.5,15 C6.32842712,15 7,15.6715729 7,16.5 C7,17.3284271 6.32842712,18 5.5,18 Z M2.5,15 C1.67157288,15 1,14.3284271 1,13.5 C1,12.6715729 1.67157288,12 2.5,12 C3.32842712,12 4,12.6715729 4,13.5 C4,14.3284271 3.32842712,15 2.5,15 Z M1.5,11 C0.671572875,11 0,10.3284271 0,9.5 C0,8.67157288 0.671572875,8 1.5,8 C2.32842712,8 3,8.67157288 3,9.5 C3,10.3284271 2.32842712,11 1.5,11 Z M3.5,7 C2.67157288,7 2,6.32842712 2,5.5 C2,4.67157288 2.67157288,4 3.5,4 C4.32842712,4 5,4.67157288 5,5.5 C5,6.32842712 4.32842712,7 3.5,7 Z">
          <animateMotion dur="2s" repeatCount="indefinite" rotate="auto" >
             <mpath xlink:href="#path1"/>
          </animateMotion>
        </path>
    </g>
</svg>
